<?xml version="1.0" encoding="UTF-8" standalone="no"?>
<!DOCTYPE svg PUBLIC "-//W3C//DTD SVG 1.1//EN"
 "http://www.w3.org/Graphics/SVG/1.1/DTD/svg11.dtd">
<!-- Generated by graphviz version 2.47.3 (20210619.1520)
 -->
<!-- Title: dependencies Pages: 1 -->
<svg width="1706pt" height="247pt"
 viewBox="0.00 0.00 1706.00 246.80" xmlns="http://www.w3.org/2000/svg" xmlns:xlink="http://www.w3.org/1999/xlink">
<g id="graph0" class="graph" transform="scale(1 1) rotate(0) translate(4 242.8)">
<title>dependencies</title>
<polygon fill="white" stroke="transparent" points="-4,4 -4,-242.8 1702,-242.8 1702,4 -4,4"/>
<text text-anchor="middle" x="849" y="-8.2" font-family="sans-serif" font-size="14.00">dependencies</text>
<g id="clust1" class="cluster">
<title>cluster_AppModule</title>
<polygon fill="none" stroke="black" stroke-dasharray="1,5" points="8,-32.8 8,-230.8 719,-230.8 719,-32.8 8,-32.8"/>
</g>
<g id="clust2" class="cluster">
<title>cluster_AppModule_declarations</title>
<polygon fill="none" stroke="black" points="16,-40.8 16,-92.8 434,-92.8 434,-40.8 16,-40.8"/>
</g>
<g id="clust6" class="cluster">
<title>cluster_AppModule_imports</title>
<polygon fill="none" stroke="black" points="442,-40.8 442,-92.8 711,-92.8 711,-40.8 442,-40.8"/>
</g>
<g id="clust8" class="cluster">
<title>cluster_AppModule_bootstrap</title>
<polygon fill="none" stroke="black" points="295,-170.8 295,-222.8 419,-222.8 419,-170.8 295,-170.8"/>
</g>
<g id="clust16" class="cluster">
<title>cluster_GameModule</title>
<polygon fill="none" stroke="black" stroke-dasharray="1,5" points="727,-32.8 727,-157.8 1318,-157.8 1318,-32.8 727,-32.8"/>
</g>
<g id="clust17" class="cluster">
<title>cluster_GameModule_declarations</title>
<polygon fill="none" stroke="black" points="897,-40.8 897,-92.8 1310,-92.8 1310,-40.8 897,-40.8"/>
</g>
<g id="clust21" class="cluster">
<title>cluster_GameModule_imports</title>
<polygon fill="none" stroke="black" points="735,-40.8 735,-92.8 889,-92.8 889,-40.8 735,-40.8"/>
</g>
<g id="clust31" class="cluster">
<title>cluster_HomepageModule</title>
<polygon fill="none" stroke="black" stroke-dasharray="1,5" points="1326,-32.8 1326,-157.8 1690,-157.8 1690,-32.8 1326,-32.8"/>
</g>
<g id="clust32" class="cluster">
<title>cluster_HomepageModule_declarations</title>
<polygon fill="none" stroke="black" points="1524,-40.8 1524,-92.8 1682,-92.8 1682,-40.8 1524,-40.8"/>
</g>
<g id="clust34" class="cluster">
<title>cluster_HomepageModule_imports</title>
<polygon fill="none" stroke="black" points="1334,-40.8 1334,-92.8 1516,-92.8 1516,-40.8 1334,-40.8"/>
</g>
<!-- AppComponent -->
<g id="node1" class="node">
<title>AppComponent</title>
<polygon fill="#ffffb3" stroke="black" points="269.94,-84.8 164.06,-84.8 164.06,-48.8 269.94,-48.8 269.94,-84.8"/>
<text text-anchor="middle" x="217" y="-62.6" font-family="Times,serif" font-size="14.00">AppComponent</text>
</g>
<!-- AppModule -->
<g id="node4" class="node">
<title>AppModule</title>
<polygon fill="#8dd3c7" stroke="black" points="398.66,-149.8 395.66,-153.8 374.66,-153.8 371.66,-149.8 315.34,-149.8 315.34,-113.8 398.66,-113.8 398.66,-149.8"/>
<text text-anchor="middle" x="357" y="-127.6" font-family="Times,serif" font-size="14.00">AppModule</text>
</g>
<!-- AppComponent&#45;&gt;AppModule -->
<g id="edge1" class="edge">
<title>AppComponent&#45;&gt;AppModule</title>
<path fill="none" stroke="black" d="M217,-84.82C217,-102.17 217,-125.8 217,-125.8 217,-125.8 305,-125.8 305,-125.8"/>
<polygon fill="black" stroke="black" points="305,-129.3 315,-125.8 305,-122.3 305,-129.3"/>
</g>
<!-- HeaderComponent -->
<g id="node2" class="node">
<title>HeaderComponent</title>
<polygon fill="#ffffb3" stroke="black" points="145.74,-84.8 24.26,-84.8 24.26,-48.8 145.74,-48.8 145.74,-84.8"/>
<text text-anchor="middle" x="85" y="-62.6" font-family="Times,serif" font-size="14.00">HeaderComponent</text>
</g>
<!-- HeaderComponent&#45;&gt;AppModule -->
<g id="edge2" class="edge">
<title>HeaderComponent&#45;&gt;AppModule</title>
<path fill="none" stroke="black" d="M85,-85.08C85,-106.12 85,-137.8 85,-137.8 85,-137.8 305.1,-137.8 305.1,-137.8"/>
<polygon fill="black" stroke="black" points="305.1,-141.3 315.1,-137.8 305.1,-134.3 305.1,-141.3"/>
</g>
<!-- NotFoundComponent -->
<g id="node3" class="node">
<title>NotFoundComponent</title>
<polygon fill="#ffffb3" stroke="black" points="426.11,-84.8 287.89,-84.8 287.89,-48.8 426.11,-48.8 426.11,-84.8"/>
<text text-anchor="middle" x="357" y="-62.6" font-family="Times,serif" font-size="14.00">NotFoundComponent</text>
</g>
<!-- NotFoundComponent&#45;&gt;AppModule -->
<g id="edge3" class="edge">
<title>NotFoundComponent&#45;&gt;AppModule</title>
<path fill="none" stroke="black" d="M357,-84.91C357,-84.91 357,-103.79 357,-103.79"/>
<polygon fill="black" stroke="black" points="353.5,-103.79 357,-113.79 360.5,-103.79 353.5,-103.79"/>
</g>
<!-- AppComponent  -->
<g id="node7" class="node">
<title>AppComponent </title>
<polygon fill="#80b1d3" stroke="black" points="411.44,-214.8 302.56,-214.8 302.56,-178.8 411.44,-178.8 411.44,-214.8"/>
<text text-anchor="middle" x="357" y="-192.6" font-family="Times,serif" font-size="14.00">AppComponent </text>
</g>
<!-- AppModule&#45;&gt;AppComponent  -->
<g id="edge6" class="edge">
<title>AppModule&#45;&gt;AppComponent </title>
<path fill="none" stroke="black" stroke-dasharray="1,5" d="M357,-149.91C357,-149.91 357,-168.79 357,-168.79"/>
<polygon fill="black" stroke="black" points="353.5,-168.79 357,-178.79 360.5,-168.79 353.5,-168.79"/>
</g>
<!-- AppRoutingModule -->
<g id="node5" class="node">
<title>AppRoutingModule</title>
<polygon fill="#8dd3c7" stroke="black" points="578.27,-84.8 575.27,-88.8 554.27,-88.8 551.27,-84.8 449.73,-84.8 449.73,-48.8 578.27,-48.8 578.27,-84.8"/>
<text text-anchor="middle" x="514" y="-62.6" font-family="Times,serif" font-size="14.00">AppRoutingModule</text>
</g>
<!-- AppRoutingModule&#45;&gt;AppModule -->
<g id="edge4" class="edge">
<title>AppRoutingModule&#45;&gt;AppModule</title>
<path fill="none" stroke="black" d="M514,-84.93C514,-105.37 514,-135.8 514,-135.8 514,-135.8 408.66,-135.8 408.66,-135.8"/>
<polygon fill="black" stroke="black" points="408.66,-132.3 398.66,-135.8 408.66,-139.3 408.66,-132.3"/>
</g>
<!-- MaterialModule -->
<g id="node6" class="node">
<title>MaterialModule</title>
<polygon fill="#8dd3c7" stroke="black" points="703.47,-84.8 700.47,-88.8 679.47,-88.8 676.47,-84.8 596.53,-84.8 596.53,-48.8 703.47,-48.8 703.47,-84.8"/>
<text text-anchor="middle" x="650" y="-62.6" font-family="Times,serif" font-size="14.00">MaterialModule</text>
</g>
<!-- MaterialModule&#45;&gt;AppModule -->
<g id="edge5" class="edge">
<title>MaterialModule&#45;&gt;AppModule</title>
<path fill="none" stroke="black" d="M650,-84.81C650,-107.29 650,-142.8 650,-142.8 650,-142.8 408.67,-142.8 408.67,-142.8"/>
<polygon fill="black" stroke="black" points="408.67,-139.3 398.67,-142.8 408.67,-146.3 408.67,-139.3"/>
</g>
<!-- GameModule -->
<g id="node11" class="node">
<title>GameModule</title>
<polygon fill="#8dd3c7" stroke="black" points="1020.48,-149.8 1017.48,-153.8 996.48,-153.8 993.48,-149.8 927.52,-149.8 927.52,-113.8 1020.48,-113.8 1020.48,-149.8"/>
<text text-anchor="middle" x="974" y="-127.6" font-family="Times,serif" font-size="14.00">GameModule</text>
</g>
<!-- MaterialModule&#45;&gt;GameModule -->
<g id="edge11" class="edge">
<title>MaterialModule&#45;&gt;GameModule</title>
<path fill="none" stroke="black" d="M676.74,-85.07C676.74,-103.36 676.74,-128.8 676.74,-128.8 676.74,-128.8 917.23,-128.8 917.23,-128.8"/>
<polygon fill="black" stroke="black" points="917.23,-132.3 927.23,-128.8 917.23,-125.3 917.23,-132.3"/>
</g>
<!-- HomepageModule -->
<g id="node14" class="node">
<title>HomepageModule</title>
<polygon fill="#8dd3c7" stroke="black" points="1485.19,-149.8 1482.19,-153.8 1461.19,-153.8 1458.19,-149.8 1364.81,-149.8 1364.81,-113.8 1485.19,-113.8 1485.19,-149.8"/>
<text text-anchor="middle" x="1425" y="-127.6" font-family="Times,serif" font-size="14.00">HomepageModule</text>
</g>
<!-- MaterialModule&#45;&gt;HomepageModule -->
<g id="edge14" class="edge">
<title>MaterialModule&#45;&gt;HomepageModule</title>
<path fill="none" stroke="black" d="M623.26,-84.84C623.26,-92.55 623.26,-99.8 623.26,-99.8 623.26,-99.8 1404.97,-99.8 1404.97,-99.8 1404.97,-99.8 1404.97,-103.56 1404.97,-103.56"/>
<polygon fill="black" stroke="black" points="1401.47,-103.56 1404.97,-113.56 1408.47,-103.56 1401.47,-103.56"/>
</g>
<!-- CaseComponent -->
<g id="node8" class="node">
<title>CaseComponent</title>
<polygon fill="#ffffb3" stroke="black" points="1169.04,-84.8 1060.96,-84.8 1060.96,-48.8 1169.04,-48.8 1169.04,-84.8"/>
<text text-anchor="middle" x="1115" y="-62.6" font-family="Times,serif" font-size="14.00">CaseComponent</text>
</g>
<!-- CaseComponent&#45;&gt;GameModule -->
<g id="edge7" class="edge">
<title>CaseComponent&#45;&gt;GameModule</title>
<path fill="none" stroke="black" d="M1115,-84.82C1115,-102.17 1115,-125.8 1115,-125.8 1115,-125.8 1030.56,-125.8 1030.56,-125.8"/>
<polygon fill="black" stroke="black" points="1030.56,-122.3 1020.56,-125.8 1030.56,-129.3 1030.56,-122.3"/>
</g>
<!-- EndGameComponent -->
<g id="node9" class="node">
<title>EndGameComponent</title>
<polygon fill="#ffffb3" stroke="black" points="1042.81,-84.8 905.19,-84.8 905.19,-48.8 1042.81,-48.8 1042.81,-84.8"/>
<text text-anchor="middle" x="974" y="-62.6" font-family="Times,serif" font-size="14.00">EndGameComponent</text>
</g>
<!-- EndGameComponent&#45;&gt;GameModule -->
<g id="edge8" class="edge">
<title>EndGameComponent&#45;&gt;GameModule</title>
<path fill="none" stroke="black" d="M974,-84.91C974,-84.91 974,-103.79 974,-103.79"/>
<polygon fill="black" stroke="black" points="970.5,-103.79 974,-113.79 977.5,-103.79 970.5,-103.79"/>
</g>
<!-- GameComponent -->
<g id="node10" class="node">
<title>GameComponent</title>
<polygon fill="#ffffb3" stroke="black" points="1302.26,-84.8 1187.74,-84.8 1187.74,-48.8 1302.26,-48.8 1302.26,-84.8"/>
<text text-anchor="middle" x="1245" y="-62.6" font-family="Times,serif" font-size="14.00">GameComponent</text>
</g>
<!-- GameComponent&#45;&gt;GameModule -->
<g id="edge9" class="edge">
<title>GameComponent&#45;&gt;GameModule</title>
<path fill="none" stroke="black" d="M1245,-85.08C1245,-106.12 1245,-137.8 1245,-137.8 1245,-137.8 1030.59,-137.8 1030.59,-137.8"/>
<polygon fill="black" stroke="black" points="1030.59,-134.3 1020.59,-137.8 1030.59,-141.3 1030.59,-134.3"/>
</g>
<!-- GameRoutingModule -->
<g id="node12" class="node">
<title>GameRoutingModule</title>
<polygon fill="#8dd3c7" stroke="black" points="881.09,-84.8 878.09,-88.8 857.09,-88.8 854.09,-84.8 742.91,-84.8 742.91,-48.8 881.09,-48.8 881.09,-84.8"/>
<text text-anchor="middle" x="812" y="-62.6" font-family="Times,serif" font-size="14.00">GameRoutingModule</text>
</g>
<!-- GameRoutingModule&#45;&gt;GameModule -->
<g id="edge10" class="edge">
<title>GameRoutingModule&#45;&gt;GameModule</title>
<path fill="none" stroke="black" d="M812,-84.81C812,-100.85 812,-121.8 812,-121.8 812,-121.8 917.14,-121.8 917.14,-121.8"/>
<polygon fill="black" stroke="black" points="917.14,-125.3 927.14,-121.8 917.14,-118.3 917.14,-125.3"/>
</g>
<!-- HomepageComponent -->
<g id="node13" class="node">
<title>HomepageComponent</title>
<polygon fill="#ffffb3" stroke="black" points="1673.97,-84.8 1532.03,-84.8 1532.03,-48.8 1673.97,-48.8 1673.97,-84.8"/>
<text text-anchor="middle" x="1603" y="-62.6" font-family="Times,serif" font-size="14.00">HomepageComponent</text>
</g>
<!-- HomepageComponent&#45;&gt;HomepageModule -->
<g id="edge12" class="edge">
<title>HomepageComponent&#45;&gt;HomepageModule</title>
<path fill="none" stroke="black" d="M1603,-84.91C1603,-104.14 1603,-131.8 1603,-131.8 1603,-131.8 1495.26,-131.8 1495.26,-131.8"/>
<polygon fill="black" stroke="black" points="1495.26,-128.3 1485.26,-131.8 1495.26,-135.3 1495.26,-128.3"/>
</g>
<!-- HomepageRoutingModule -->
<g id="node15" class="node">
<title>HomepageRoutingModule</title>
<polygon fill="#8dd3c7" stroke="black" points="1507.81,-84.8 1504.81,-88.8 1483.81,-88.8 1480.81,-84.8 1342.19,-84.8 1342.19,-48.8 1507.81,-48.8 1507.81,-84.8"/>
<text text-anchor="middle" x="1425" y="-62.6" font-family="Times,serif" font-size="14.00">HomepageRoutingModule</text>
</g>
<!-- HomepageRoutingModule&#45;&gt;HomepageModule -->
<g id="edge13" class="edge">
<title>HomepageRoutingModule&#45;&gt;HomepageModule</title>
<path fill="none" stroke="black" d="M1445.03,-84.91C1445.03,-84.91 1445.03,-103.79 1445.03,-103.79"/>
<polygon fill="black" stroke="black" points="1441.53,-103.79 1445.03,-113.79 1448.53,-103.79 1441.53,-103.79"/>
</g>
</g>
</svg>
