<?xml version="1.0" encoding="UTF-8" standalone="no"?>
<!DOCTYPE svg PUBLIC "-//W3C//DTD SVG 1.1//EN"
 "http://www.w3.org/Graphics/SVG/1.1/DTD/svg11.dtd">
<!-- Generated by graphviz version 2.47.3 (20210619.1520)
 -->
<!-- Title: dependencies Pages: 1 -->
<svg width="739pt" height="174pt"
 viewBox="0.00 0.00 739.00 173.80" xmlns="http://www.w3.org/2000/svg" xmlns:xlink="http://www.w3.org/1999/xlink">
<g id="graph0" class="graph" transform="scale(1 1) rotate(0) translate(4 169.8)">
<title>dependencies</title>
<polygon fill="white" stroke="transparent" points="-4,4 -4,-169.8 735,-169.8 735,4 -4,4"/>
<text text-anchor="middle" x="365.5" y="-8.2" font-family="sans-serif" font-size="14.00">dependencies</text>
<g id="clust1" class="cluster">
<title>cluster_GameModule</title>
<polygon fill="none" stroke="black" stroke-dasharray="1,5" points="8,-32.8 8,-157.8 723,-157.8 723,-32.8 8,-32.8"/>
</g>
<g id="clust2" class="cluster">
<title>cluster_GameModule_declarations</title>
<polygon fill="none" stroke="black" points="303,-40.8 303,-92.8 715,-92.8 715,-40.8 303,-40.8"/>
</g>
<g id="clust6" class="cluster">
<title>cluster_GameModule_imports</title>
<polygon fill="none" stroke="black" points="16,-40.8 16,-92.8 295,-92.8 295,-40.8 16,-40.8"/>
</g>
<!-- CaseComponent -->
<g id="node1" class="node">
<title>CaseComponent</title>
<polygon fill="#ffffb3" stroke="black" points="707.04,-84.8 598.96,-84.8 598.96,-48.8 707.04,-48.8 707.04,-84.8"/>
<text text-anchor="middle" x="653" y="-62.6" font-family="Times,serif" font-size="14.00">CaseComponent</text>
</g>
<!-- GameModule -->
<g id="node4" class="node">
<title>GameModule</title>
<polygon fill="#8dd3c7" stroke="black" points="414.48,-149.8 411.48,-153.8 390.48,-153.8 387.48,-149.8 321.52,-149.8 321.52,-113.8 414.48,-113.8 414.48,-149.8"/>
<text text-anchor="middle" x="368" y="-127.6" font-family="Times,serif" font-size="14.00">GameModule</text>
</g>
<!-- CaseComponent&#45;&gt;GameModule -->
<g id="edge1" class="edge">
<title>CaseComponent&#45;&gt;GameModule</title>
<path fill="none" stroke="black" d="M653,-85.08C653,-106.12 653,-137.8 653,-137.8 653,-137.8 424.74,-137.8 424.74,-137.8"/>
<polygon fill="black" stroke="black" points="424.74,-134.3 414.74,-137.8 424.74,-141.3 424.74,-134.3"/>
</g>
<!-- EndGameComponent -->
<g id="node2" class="node">
<title>EndGameComponent</title>
<polygon fill="#ffffb3" stroke="black" points="580.81,-84.8 443.19,-84.8 443.19,-48.8 580.81,-48.8 580.81,-84.8"/>
<text text-anchor="middle" x="512" y="-62.6" font-family="Times,serif" font-size="14.00">EndGameComponent</text>
</g>
<!-- EndGameComponent&#45;&gt;GameModule -->
<g id="edge2" class="edge">
<title>EndGameComponent&#45;&gt;GameModule</title>
<path fill="none" stroke="black" d="M512,-84.82C512,-102.17 512,-125.8 512,-125.8 512,-125.8 424.75,-125.8 424.75,-125.8"/>
<polygon fill="black" stroke="black" points="424.75,-122.3 414.75,-125.8 424.75,-129.3 424.75,-122.3"/>
</g>
<!-- GameComponent -->
<g id="node3" class="node">
<title>GameComponent</title>
<polygon fill="#ffffb3" stroke="black" points="425.26,-84.8 310.74,-84.8 310.74,-48.8 425.26,-48.8 425.26,-84.8"/>
<text text-anchor="middle" x="368" y="-62.6" font-family="Times,serif" font-size="14.00">GameComponent</text>
</g>
<!-- GameComponent&#45;&gt;GameModule -->
<g id="edge3" class="edge">
<title>GameComponent&#45;&gt;GameModule</title>
<path fill="none" stroke="black" d="M368,-84.91C368,-84.91 368,-103.79 368,-103.79"/>
<polygon fill="black" stroke="black" points="364.5,-103.79 368,-113.79 371.5,-103.79 364.5,-103.79"/>
</g>
<!-- GameRoutingModule -->
<g id="node5" class="node">
<title>GameRoutingModule</title>
<polygon fill="#8dd3c7" stroke="black" points="287.09,-84.8 284.09,-88.8 263.09,-88.8 260.09,-84.8 148.91,-84.8 148.91,-48.8 287.09,-48.8 287.09,-84.8"/>
<text text-anchor="middle" x="218" y="-62.6" font-family="Times,serif" font-size="14.00">GameRoutingModule</text>
</g>
<!-- GameRoutingModule&#45;&gt;GameModule -->
<g id="edge4" class="edge">
<title>GameRoutingModule&#45;&gt;GameModule</title>
<path fill="none" stroke="black" d="M218,-84.82C218,-102.17 218,-125.8 218,-125.8 218,-125.8 311.36,-125.8 311.36,-125.8"/>
<polygon fill="black" stroke="black" points="311.36,-129.3 321.36,-125.8 311.36,-122.3 311.36,-129.3"/>
</g>
<!-- MaterialModule -->
<g id="node6" class="node">
<title>MaterialModule</title>
<polygon fill="#8dd3c7" stroke="black" points="130.47,-84.8 127.47,-88.8 106.47,-88.8 103.47,-84.8 23.53,-84.8 23.53,-48.8 130.47,-48.8 130.47,-84.8"/>
<text text-anchor="middle" x="77" y="-62.6" font-family="Times,serif" font-size="14.00">MaterialModule</text>
</g>
<!-- MaterialModule&#45;&gt;GameModule -->
<g id="edge5" class="edge">
<title>MaterialModule&#45;&gt;GameModule</title>
<path fill="none" stroke="black" d="M77,-85.08C77,-106.12 77,-137.8 77,-137.8 77,-137.8 311.25,-137.8 311.25,-137.8"/>
<polygon fill="black" stroke="black" points="311.25,-141.3 321.25,-137.8 311.25,-134.3 311.25,-141.3"/>
</g>
</g>
</svg>
