<?xml version="1.0" encoding="UTF-8" standalone="no"?>
<!DOCTYPE svg PUBLIC "-//W3C//DTD SVG 1.1//EN"
 "http://www.w3.org/Graphics/SVG/1.1/DTD/svg11.dtd">
<!-- Generated by graphviz version 2.47.3 (20210619.1520)
 -->
<!-- Title: dependencies Pages: 1 -->
<svg width="735pt" height="247pt"
 viewBox="0.00 0.00 735.00 246.80" xmlns="http://www.w3.org/2000/svg" xmlns:xlink="http://www.w3.org/1999/xlink">
<g id="graph0" class="graph" transform="scale(1 1) rotate(0) translate(4 242.8)">
<title>dependencies</title>
<polygon fill="white" stroke="transparent" points="-4,4 -4,-242.8 731,-242.8 731,4 -4,4"/>
<text text-anchor="middle" x="363.5" y="-8.2" font-family="sans-serif" font-size="14.00">dependencies</text>
<g id="clust1" class="cluster">
<title>cluster_AppModule</title>
<polygon fill="none" stroke="black" stroke-dasharray="1,5" points="8,-32.8 8,-230.8 719,-230.8 719,-32.8 8,-32.8"/>
</g>
<g id="clust8" class="cluster">
<title>cluster_AppModule_bootstrap</title>
<polygon fill="none" stroke="black" points="308,-170.8 308,-222.8 432,-222.8 432,-170.8 308,-170.8"/>
</g>
<g id="clust2" class="cluster">
<title>cluster_AppModule_declarations</title>
<polygon fill="none" stroke="black" points="293,-40.8 293,-92.8 711,-92.8 711,-40.8 293,-40.8"/>
</g>
<g id="clust6" class="cluster">
<title>cluster_AppModule_imports</title>
<polygon fill="none" stroke="black" points="16,-40.8 16,-92.8 285,-92.8 285,-40.8 16,-40.8"/>
</g>
<!-- AppComponent -->
<g id="node1" class="node">
<title>AppComponent</title>
<polygon fill="#ffffb3" stroke="black" points="702.94,-84.8 597.06,-84.8 597.06,-48.8 702.94,-48.8 702.94,-84.8"/>
<text text-anchor="middle" x="650" y="-62.6" font-family="Times,serif" font-size="14.00">AppComponent</text>
</g>
<!-- AppModule -->
<g id="node4" class="node">
<title>AppModule</title>
<polygon fill="#8dd3c7" stroke="black" points="411.66,-149.8 408.66,-153.8 387.66,-153.8 384.66,-149.8 328.34,-149.8 328.34,-113.8 411.66,-113.8 411.66,-149.8"/>
<text text-anchor="middle" x="370" y="-127.6" font-family="Times,serif" font-size="14.00">AppModule</text>
</g>
<!-- AppComponent&#45;&gt;AppModule -->
<g id="edge1" class="edge">
<title>AppComponent&#45;&gt;AppModule</title>
<path fill="none" stroke="black" d="M650,-85.08C650,-106.12 650,-137.8 650,-137.8 650,-137.8 421.92,-137.8 421.92,-137.8"/>
<polygon fill="black" stroke="black" points="421.92,-134.3 411.92,-137.8 421.92,-141.3 421.92,-134.3"/>
</g>
<!-- HeaderComponent -->
<g id="node2" class="node">
<title>HeaderComponent</title>
<polygon fill="#ffffb3" stroke="black" points="578.74,-84.8 457.26,-84.8 457.26,-48.8 578.74,-48.8 578.74,-84.8"/>
<text text-anchor="middle" x="518" y="-62.6" font-family="Times,serif" font-size="14.00">HeaderComponent</text>
</g>
<!-- HeaderComponent&#45;&gt;AppModule -->
<g id="edge2" class="edge">
<title>HeaderComponent&#45;&gt;AppModule</title>
<path fill="none" stroke="black" d="M518,-84.82C518,-102.17 518,-125.8 518,-125.8 518,-125.8 422.01,-125.8 422.01,-125.8"/>
<polygon fill="black" stroke="black" points="422.02,-122.3 412.01,-125.8 422.01,-129.3 422.02,-122.3"/>
</g>
<!-- NotFoundComponent -->
<g id="node3" class="node">
<title>NotFoundComponent</title>
<polygon fill="#ffffb3" stroke="black" points="439.11,-84.8 300.89,-84.8 300.89,-48.8 439.11,-48.8 439.11,-84.8"/>
<text text-anchor="middle" x="370" y="-62.6" font-family="Times,serif" font-size="14.00">NotFoundComponent</text>
</g>
<!-- NotFoundComponent&#45;&gt;AppModule -->
<g id="edge3" class="edge">
<title>NotFoundComponent&#45;&gt;AppModule</title>
<path fill="none" stroke="black" d="M370,-84.91C370,-84.91 370,-103.79 370,-103.79"/>
<polygon fill="black" stroke="black" points="366.5,-103.79 370,-113.79 373.5,-103.79 366.5,-103.79"/>
</g>
<!-- AppComponent  -->
<g id="node7" class="node">
<title>AppComponent </title>
<polygon fill="#80b1d3" stroke="black" points="424.44,-214.8 315.56,-214.8 315.56,-178.8 424.44,-178.8 424.44,-214.8"/>
<text text-anchor="middle" x="370" y="-192.6" font-family="Times,serif" font-size="14.00">AppComponent </text>
</g>
<!-- AppModule&#45;&gt;AppComponent  -->
<g id="edge6" class="edge">
<title>AppModule&#45;&gt;AppComponent </title>
<path fill="none" stroke="black" stroke-dasharray="1,5" d="M370,-149.91C370,-149.91 370,-168.79 370,-168.79"/>
<polygon fill="black" stroke="black" points="366.5,-168.79 370,-178.79 373.5,-168.79 366.5,-168.79"/>
</g>
<!-- AppRoutingModule -->
<g id="node5" class="node">
<title>AppRoutingModule</title>
<polygon fill="#8dd3c7" stroke="black" points="277.27,-84.8 274.27,-88.8 253.27,-88.8 250.27,-84.8 148.73,-84.8 148.73,-48.8 277.27,-48.8 277.27,-84.8"/>
<text text-anchor="middle" x="213" y="-62.6" font-family="Times,serif" font-size="14.00">AppRoutingModule</text>
</g>
<!-- AppRoutingModule&#45;&gt;AppModule -->
<g id="edge4" class="edge">
<title>AppRoutingModule&#45;&gt;AppModule</title>
<path fill="none" stroke="black" d="M213,-84.82C213,-102.17 213,-125.8 213,-125.8 213,-125.8 318.34,-125.8 318.34,-125.8"/>
<polygon fill="black" stroke="black" points="318.34,-129.3 328.34,-125.8 318.34,-122.3 318.34,-129.3"/>
</g>
<!-- MaterialModule -->
<g id="node6" class="node">
<title>MaterialModule</title>
<polygon fill="#8dd3c7" stroke="black" points="130.47,-84.8 127.47,-88.8 106.47,-88.8 103.47,-84.8 23.53,-84.8 23.53,-48.8 130.47,-48.8 130.47,-84.8"/>
<text text-anchor="middle" x="77" y="-62.6" font-family="Times,serif" font-size="14.00">MaterialModule</text>
</g>
<!-- MaterialModule&#45;&gt;AppModule -->
<g id="edge5" class="edge">
<title>MaterialModule&#45;&gt;AppModule</title>
<path fill="none" stroke="black" d="M77,-85.08C77,-106.12 77,-137.8 77,-137.8 77,-137.8 318.33,-137.8 318.33,-137.8"/>
<polygon fill="black" stroke="black" points="318.33,-141.3 328.33,-137.8 318.33,-134.3 318.33,-141.3"/>
</g>
</g>
</svg>
