<?xml version="1.0" encoding="UTF-8" standalone="no"?>
<!DOCTYPE svg PUBLIC "-//W3C//DTD SVG 1.1//EN"
 "http://www.w3.org/Graphics/SVG/1.1/DTD/svg11.dtd">
<!-- Generated by graphviz version 2.47.3 (20210619.1520)
 -->
<!-- Title: dependencies Pages: 1 -->
<svg width="512pt" height="174pt"
 viewBox="0.00 0.00 512.00 173.80" xmlns="http://www.w3.org/2000/svg" xmlns:xlink="http://www.w3.org/1999/xlink">
<g id="graph0" class="graph" transform="scale(1 1) rotate(0) translate(4 169.8)">
<title>dependencies</title>
<polygon fill="white" stroke="transparent" points="-4,4 -4,-169.8 508,-169.8 508,4 -4,4"/>
<text text-anchor="middle" x="252" y="-8.2" font-family="sans-serif" font-size="14.00">dependencies</text>
<g id="clust1" class="cluster">
<title>cluster_HomepageModule</title>
<polygon fill="none" stroke="black" stroke-dasharray="1,5" points="8,-32.8 8,-157.8 496,-157.8 496,-32.8 8,-32.8"/>
</g>
<g id="clust2" class="cluster">
<title>cluster_HomepageModule_declarations</title>
<polygon fill="none" stroke="black" points="330,-40.8 330,-92.8 488,-92.8 488,-40.8 330,-40.8"/>
</g>
<g id="clust4" class="cluster">
<title>cluster_HomepageModule_imports</title>
<polygon fill="none" stroke="black" points="16,-40.8 16,-92.8 322,-92.8 322,-40.8 16,-40.8"/>
</g>
<!-- HomepageComponent -->
<g id="node1" class="node">
<title>HomepageComponent</title>
<polygon fill="#ffffb3" stroke="black" points="479.97,-84.8 338.03,-84.8 338.03,-48.8 479.97,-48.8 479.97,-84.8"/>
<text text-anchor="middle" x="409" y="-62.6" font-family="Times,serif" font-size="14.00">HomepageComponent</text>
</g>
<!-- HomepageModule -->
<g id="node2" class="node">
<title>HomepageModule</title>
<polygon fill="#8dd3c7" stroke="black" points="291.19,-149.8 288.19,-153.8 267.19,-153.8 264.19,-149.8 170.81,-149.8 170.81,-113.8 291.19,-113.8 291.19,-149.8"/>
<text text-anchor="middle" x="231" y="-127.6" font-family="Times,serif" font-size="14.00">HomepageModule</text>
</g>
<!-- HomepageComponent&#45;&gt;HomepageModule -->
<g id="edge1" class="edge">
<title>HomepageComponent&#45;&gt;HomepageModule</title>
<path fill="none" stroke="black" d="M409,-84.91C409,-104.14 409,-131.8 409,-131.8 409,-131.8 301.26,-131.8 301.26,-131.8"/>
<polygon fill="black" stroke="black" points="301.26,-128.3 291.26,-131.8 301.26,-135.3 301.26,-128.3"/>
</g>
<!-- HomepageRoutingModule -->
<g id="node3" class="node">
<title>HomepageRoutingModule</title>
<polygon fill="#8dd3c7" stroke="black" points="313.81,-84.8 310.81,-88.8 289.81,-88.8 286.81,-84.8 148.19,-84.8 148.19,-48.8 313.81,-48.8 313.81,-84.8"/>
<text text-anchor="middle" x="231" y="-62.6" font-family="Times,serif" font-size="14.00">HomepageRoutingModule</text>
</g>
<!-- HomepageRoutingModule&#45;&gt;HomepageModule -->
<g id="edge2" class="edge">
<title>HomepageRoutingModule&#45;&gt;HomepageModule</title>
<path fill="none" stroke="black" d="M231,-84.91C231,-84.91 231,-103.79 231,-103.79"/>
<polygon fill="black" stroke="black" points="227.5,-103.79 231,-113.79 234.5,-103.79 227.5,-103.79"/>
</g>
<!-- MaterialModule -->
<g id="node4" class="node">
<title>MaterialModule</title>
<polygon fill="#8dd3c7" stroke="black" points="130.47,-84.8 127.47,-88.8 106.47,-88.8 103.47,-84.8 23.53,-84.8 23.53,-48.8 130.47,-48.8 130.47,-84.8"/>
<text text-anchor="middle" x="77" y="-62.6" font-family="Times,serif" font-size="14.00">MaterialModule</text>
</g>
<!-- MaterialModule&#45;&gt;HomepageModule -->
<g id="edge3" class="edge">
<title>MaterialModule&#45;&gt;HomepageModule</title>
<path fill="none" stroke="black" d="M77,-84.91C77,-104.14 77,-131.8 77,-131.8 77,-131.8 160.58,-131.8 160.58,-131.8"/>
<polygon fill="black" stroke="black" points="160.58,-135.3 170.58,-131.8 160.58,-128.3 160.58,-135.3"/>
</g>
</g>
</svg>
